<svg width="120" height="48" viewBox="0 0 120 48" fill="none" xmlns="http://www.w3.org/2000/svg">
<path d="M0 8C0 3.58172 3.58172 0 8 0H112C116.418 0 120 3.58172 120 8V40C120 44.4183 116.418 48 112 48H8C3.58172 48 0 44.4183 0 40V8Z" fill="white"/>
<path d="M54.0353 31.4572C54.0353 31.9286 53.9171 32.365 53.6806 32.7666C53.4441 33.1594 53.0937 33.478 52.6295 33.7224C52.1652 33.9581 51.6003 34.0759 50.9346 34.0759C50.2776 34.0759 49.6908 33.9668 49.174 33.7486C48.6572 33.5216 48.2411 33.1987 47.9258 32.7797C47.6192 32.3607 47.444 31.8718 47.4002 31.3132H48.3071C48.9137 31.3132 49.3881 31.8277 49.8178 32.2559C50.0806 32.5003 50.4265 32.6225 50.8557 32.6225C51.2411 32.6225 51.5346 32.5221 51.736 32.3214C51.9463 32.1119 52.0514 31.8456 52.0514 31.5227C52.0514 31.2346 51.9682 30.9989 51.8017 30.8156C51.6353 30.6236 51.4251 30.4708 51.1711 30.3573C50.9171 30.2439 50.5667 30.1129 50.12 29.9645C49.5419 29.7725 49.0689 29.5848 48.701 29.4015C48.3331 29.2095 48.0178 28.9345 47.755 28.5766C47.501 28.2187 47.374 27.7517 47.374 27.1756C47.374 26.3812 47.6586 25.7571 48.228 25.3032C48.8061 24.8406 49.5681 24.6092 50.5141 24.6092C51.4952 24.6092 52.2747 24.8449 52.8528 25.3163C53.4397 25.7877 53.7726 26.4162 53.8514 27.2018H52.7866C52.2496 27.2018 51.829 26.7535 51.4339 26.39C51.2061 26.1717 50.8952 26.0626 50.501 26.0626C50.1594 26.0626 49.8835 26.1543 49.6733 26.3376C49.463 26.5122 49.3579 26.7697 49.3579 27.1101C49.3579 27.3807 49.4368 27.6077 49.5944 27.791C49.7608 27.9656 49.9667 28.1096 50.2119 28.2231C50.466 28.3366 50.8076 28.4631 51.2368 28.6028C51.8324 28.8123 52.3141 29.0087 52.682 29.192C53.0587 29.3753 53.3784 29.6503 53.6412 30.0169C53.9039 30.3835 54.0353 30.8636 54.0353 31.4572Z" fill="#55A630"/>
<path d="M57.6467 26.2067V28.6028H60.9314V30.0169H57.6467V32.5047H59.846C60.6632 32.5047 61.3256 33.1671 61.3256 33.9843H55.7942V24.7402H61.3256C61.3256 25.5501 60.669 26.2067 59.8591 26.2067H57.6467Z" fill="#55A630"/>
<path d="M64.9439 32.5702H66.6437C67.4247 32.5702 68.0578 33.2033 68.0578 33.9843H63.0913V24.7402C64.1145 24.7402 64.9439 25.5696 64.9439 26.5927V32.5702Z" fill="#55A630"/>
<path d="M71.407 32.5702H73.1068C73.8878 32.5702 74.5209 33.2033 74.5209 33.9843H69.5545V24.7402C70.5776 24.7402 71.407 25.5696 71.407 26.5927V32.5702Z" fill="#55A630"/>
<path d="M77.8702 26.2067V28.6028H81.1549V30.0169H77.8702V32.5047H80.0695C80.8866 32.5047 81.549 33.1671 81.549 33.9843H76.0176V24.7402H81.549V26.2067H77.8702Z" fill="#55A630"/>
<path d="M90.1995 33.9843C88.9276 33.9843 87.7487 33.318 87.0926 32.2283L85.9819 30.3835H85.1673V32.1317C85.1673 33.1548 84.3379 33.9843 83.3148 33.9843V24.7402H86.8491C87.9265 24.7402 88.7455 25.002 89.306 25.5258C89.8754 26.0495 90.1601 26.7391 90.1601 27.5946C90.1601 28.2929 89.963 28.8778 89.5688 29.3491C89.1834 29.8205 88.6228 30.1347 87.887 30.2919L90.1995 33.9843ZM85.1673 29.1134H86.6914C87.7513 29.1134 88.2812 28.6464 88.2812 27.7124C88.2812 27.2672 88.1498 26.9224 87.887 26.678C87.633 26.4249 87.2345 26.2983 86.6914 26.2983H85.1673V29.1134Z" fill="#55A630"/>
<path d="M55.1714 11.9836C55.1714 13.0676 54.2926 13.9463 53.2086 13.9463H52.4162V22.1869H49.948V13.9463H49.1842C48.1002 13.9463 47.2215 13.0676 47.2215 11.9836H55.1714Z" fill="#007F5F"/>
<path d="M64.2704 22.1869C62.5936 22.1869 61.0457 21.2873 60.2156 19.8304L59.3627 18.3336H58.803V19.7331C58.803 21.0883 57.7044 22.1869 56.3492 22.1869V11.9836H60.5394C61.343 11.9836 62.0222 12.1231 62.5771 12.4021C63.132 12.6811 63.5481 13.066 63.8256 13.5567C64.103 14.0377 64.2417 14.5909 64.2417 15.2163C64.2417 15.9572 64.036 16.5873 63.6246 17.1069C63.2228 17.6264 62.6345 17.9824 61.8596 18.1749L64.2704 22.1869ZM58.803 16.6451H60.3241C60.812 16.6451 61.1708 16.5392 61.4004 16.3276C61.63 16.1063 61.7448 15.784 61.7448 15.3606C61.7448 14.9565 61.6252 14.639 61.386 14.4081C61.1564 14.1772 60.8025 14.0618 60.3241 14.0618H58.803V16.6451Z" fill="#007F5F"/>
<path d="M65.5582 11.9836C66.9055 11.9836 67.9977 13.0758 67.9977 14.4231V17.8718C67.9977 18.5453 68.146 19.06 68.4426 19.416C68.7487 19.772 69.1888 19.95 69.7628 19.95C70.3368 19.95 70.772 19.772 71.0686 19.416C71.3747 19.06 71.5278 18.5453 71.5278 17.8718V14.4374C71.5278 13.0822 72.6264 11.9836 73.9817 11.9836V17.8718C73.9817 18.8339 73.7951 19.6469 73.422 20.3108C73.0489 20.965 72.5371 21.4605 71.8866 21.7973C71.2456 22.1244 70.5185 22.2879 69.7054 22.2879C68.8922 22.2879 68.1747 22.1244 67.5529 21.7973C66.931 21.4701 66.4431 20.9746 66.0891 20.3108C65.7352 19.6469 65.5582 18.8339 65.5582 17.8718V11.9836Z" fill="#007F5F"/>
<path d="M83.0547 19.315C83.0547 19.8538 82.916 20.3493 82.6385 20.8015C82.3707 21.2537 81.9689 21.6144 81.4331 21.8838C80.907 22.1532 80.266 22.2879 79.5102 22.2879C78.3718 22.2879 77.4343 22.0089 76.6976 21.4509C75.961 20.8929 75.5592 20.1135 75.4922 19.1129H77.0883C77.6648 19.1129 78.0906 19.6221 78.5057 20.0221C78.7449 20.2434 79.0462 20.3541 79.4098 20.3541C79.7255 20.3541 79.9742 20.2675 80.156 20.0943C80.3378 19.9211 80.4286 19.6902 80.4286 19.4016C80.4286 19.1418 80.3425 18.9253 80.1703 18.7521C80.0077 18.5789 79.802 18.4394 79.5533 18.3336C79.3046 18.2181 78.9602 18.0835 78.5201 17.9295C77.8791 17.7082 77.353 17.4966 76.9416 17.2945C76.5398 17.0828 76.1906 16.775 75.894 16.3709C75.607 15.9572 75.4635 15.4232 75.4635 14.7689C75.4635 14.1628 75.6166 13.6384 75.9227 13.1959C76.2289 12.7533 76.6498 12.4165 77.1855 12.1856C77.7308 11.9451 78.3527 11.8248 79.051 11.8248C80.1799 11.8248 81.0744 12.0942 81.7345 12.633C82.4042 13.1718 82.782 13.9126 82.8681 14.8555H81.1074C80.5945 14.8555 80.2107 14.4165 79.8403 14.0618C79.649 13.8597 79.3859 13.7587 79.051 13.7587C78.764 13.7587 78.5296 13.8357 78.3479 13.9896C78.1757 14.1435 78.0896 14.3696 78.0896 14.6679C78.0896 14.9084 78.1661 15.1153 78.3192 15.2885C78.4818 15.452 78.6827 15.5867 78.9219 15.6926C79.161 15.7984 79.5055 15.9331 79.9551 16.0967C80.6056 16.3179 81.1366 16.5392 81.5479 16.7605C81.9593 16.9722 82.3133 17.2849 82.6098 17.6986C82.9064 18.1123 83.0547 18.6511 83.0547 19.315Z" fill="#007F5F"/>
<path d="M91.8446 11.9836C91.8446 13.0676 90.9659 13.9463 89.8819 13.9463H89.0894V22.1869H86.6212V13.9463H85.8575C84.7735 13.9463 83.8947 13.0676 83.8947 11.9836H91.8446Z" fill="#007F5F"/>
<path d="M95.4763 13.9463V16.0822H98.906V17.9439H95.4763V20.2097H97.3593C98.4513 20.2097 99.3365 21.095 99.3365 22.1869H93.0225V11.9836H99.3365C99.3365 13.0676 98.4577 13.9463 97.3737 13.9463H95.4763Z" fill="#007F5F"/>
<path d="M110 17.0636C110 18.0642 109.785 18.9542 109.354 19.7335C108.933 20.5032 108.321 21.1045 107.518 21.5375C106.724 21.9704 105.786 22.1869 104.705 22.1869H100.873V11.9836H104.705C105.796 11.9836 106.738 12.1952 107.532 12.6186C108.326 13.0419 108.933 13.6384 109.354 14.4081C109.785 15.1778 110 16.063 110 17.0636ZM104.49 19.9788C105.446 19.9788 106.188 19.7239 106.714 19.2139C107.25 18.704 107.518 17.9872 107.518 17.0636C107.518 16.14 107.25 15.4232 106.714 14.9132C106.188 14.4033 105.446 14.1484 104.49 14.1484H103.327V19.9788H104.49Z" fill="#007F5F"/>
<path d="M27.5212 41.6005C27.4376 41.6005 27.354 41.5902 27.2722 41.5694C23.1601 40.5251 19.459 38.0808 16.8504 34.6869C14.2419 31.2929 12.8054 27.0523 12.8054 22.7465V12.2579C12.8054 11.8231 13.0709 11.4339 13.4715 11.2813L27.1607 6.06639C27.3931 5.97787 27.6493 5.97787 27.8816 6.06639L41.5708 11.2813C41.9716 11.4339 42.2371 11.8231 42.2371 12.2579V22.7465C42.2371 27.0524 40.8005 31.2929 38.192 34.6869C35.5834 38.0809 31.8822 40.5251 27.7702 41.5694C27.6884 41.5902 27.6049 41.6005 27.5212 41.6005Z" fill="url(#paint0_linear_482_1525)"/>
<path d="M27.7702 41.5694C31.8822 40.5251 35.5834 38.0809 38.192 34.6869C40.8005 31.2929 42.2371 27.0524 42.2371 22.7465V12.2579C42.2371 11.8231 41.9716 11.4339 41.5708 11.2813L27.8816 6.06639C27.7654 6.02209 27.6443 6 27.5221 6L27.5212 41.6005C27.6049 41.6005 27.6884 41.5902 27.7702 41.5694Z" fill="url(#paint1_linear_482_1525)"/>
<path d="M27.5221 37.2605C27.4136 37.2605 27.3052 37.243 27.2009 37.208C21.0474 35.1481 16.913 29.3365 16.913 22.7465V15.1491C16.913 14.7143 17.1785 14.3251 17.5792 14.1725L27.1616 10.522C27.394 10.4335 27.6503 10.4335 27.8826 10.522L37.465 14.1725C37.8657 14.3251 38.1312 14.7143 38.1312 15.1491V22.7465C38.1312 29.3365 33.9968 35.1481 27.8433 37.208C27.7391 37.243 27.6306 37.2605 27.5221 37.2605Z" fill="url(#paint2_linear_482_1525)"/>
<path d="M27.8433 37.208C33.9968 35.1481 38.1312 29.3365 38.1312 22.7465V15.1491C38.1312 14.7143 37.8657 14.3251 37.465 14.1725L27.8826 10.522C27.7664 10.4777 27.6443 10.4556 27.5221 10.4556V37.2605C27.6306 37.2605 27.7391 37.243 27.8433 37.208Z" fill="url(#paint3_linear_482_1525)"/>
<path d="M28.3824 32.7002C26.9791 30.7237 21.8044 23.2669 18.5155 21.4701C22.0237 20.7962 26.209 23.6433 27.5246 24.5417C35.4182 16.456 38.4686 12.486 45.0466 8.89232C33.6448 21.0208 30.1365 28.2081 28.3824 32.7002Z" fill="#FEBD13"/>
<path d="M28.1632 29.5557C24.2164 24.3899 22.6815 23.2669 18.5155 21.4701C21.6839 20.8333 26.0645 22.3167 27.5246 24.5417C35.4182 16.456 38.4686 12.486 45.0466 8.89232C34.0833 19.224 29.9173 25.0637 28.1632 29.5557Z" fill="url(#paint4_linear_482_1525)"/>
<defs>
<linearGradient id="paint0_linear_482_1525" x1="24.2791" y1="-2.29582e-05" x2="28.5323" y2="50.6428" gradientUnits="userSpaceOnUse">
<stop stop-color="#55A630"/>
<stop offset="1" stop-color="#2B9348"/>
</linearGradient>
<linearGradient id="paint1_linear_482_1525" x1="60" y1="-2.0219e-07" x2="58.6025" y2="47.3774" gradientUnits="userSpaceOnUse">
<stop stop-color="#2B9348"/>
<stop offset="1" stop-color="#55A630"/>
</linearGradient>
<linearGradient id="paint2_linear_482_1525" x1="18.7097" y1="-0.00999091" x2="23.2726" y2="51.2681" gradientUnits="userSpaceOnUse">
<stop stop-color="#007F5F"/>
<stop offset="1" stop-color="#007F5F"/>
</linearGradient>
<linearGradient id="paint3_linear_482_1525" x1="60" y1="9.97156e-08" x2="58.6222" y2="49.2131" gradientUnits="userSpaceOnUse">
<stop stop-color="#55A630"/>
<stop offset="1" stop-color="#2B9348"/>
</linearGradient>
<linearGradient id="paint4_linear_482_1525" x1="43.5868" y1="8.96626" x2="27.9808" y2="26.5229" gradientUnits="userSpaceOnUse">
<stop stop-color="white"/>
<stop offset="1" stop-color="#F7FAFE"/>
</linearGradient>
</defs>
</svg>
